<svg id="splash-logo" width="400" height="105" viewBox="0 0 441 105" fill="none" xmlns="http://www.w3.org/2000/svg">
   <path d="M37.9562 1.91199C48.6122 1.91199 57.9243 4.02397 65.8923 8.24797C73.8603 12.472 80.0043 18.424 84.3243 26.104C88.7403 33.688 90.9482 42.472 90.9482 52.456C90.9482 62.344 88.7403 71.128 84.3243 78.808C80.0043 86.488 73.8122 92.44 65.7482 96.664C57.7802 100.888 48.5162 103 37.9562 103H0.084259V1.91199H37.9562ZM36.3723 81.688C45.6843 81.688 52.9323 79.144 58.1163 74.056C63.3003 68.968 65.8923 61.768 65.8923 52.456C65.8923 43.144 63.3003 35.896 58.1163 30.712C52.9323 25.528 45.6843 22.936 36.3723 22.936H24.7083V81.688H36.3723Z" stroke="#152232" stroke-width="5"></path>
</svg>